<?xml version="1.0" encoding="UTF-8"?>
<svg version="1.1" xmlns="http://www.w3.org/2000/svg" width="500" height="500" viewBox="0 0 500 500">
<path d="M0 0 C0.66 0 1.32 0 2 0 C2.40613525 0.7120459 2.81227051 1.4240918 3.23071289 2.15771484 C10.67261419 15.20164164 18.12363823 28.24015183 25.625 41.25 C26.23110107 42.3026001 26.83720215 43.3552002 27.46166992 44.43969727 C30.6154507 49.90689393 33.79596731 55.35646429 37.015625 60.78515625 C37.66321777 61.88118164 38.31081055 62.97720703 38.97802734 64.10644531 C40.21172833 66.19151112 41.45132966 68.27310089 42.69775391 70.35058594 C43.24866699 71.28290039 43.79958008 72.21521484 44.3671875 73.17578125 C45.09591064 74.39648315 45.09591064 74.39648315 45.83935547 75.6418457 C47.10228293 78.20781465 47.79071391 80.14254721 48 83 C47.06640625 85.3581543 47.06640625 85.3581543 45.5625 87.82421875 C45.00506104 88.75669434 44.44762207 89.68916992 43.87329102 90.64990234 C43.25510498 91.65230957 42.63691895 92.6547168 42 93.6875 C40.69567128 95.86011105 39.39231821 98.03330807 38.08984375 100.20703125 C37.41163574 101.32932129 36.73342773 102.45161133 36.03466797 103.60791016 C32.80654929 108.98965733 29.68617852 114.43219555 26.5625 119.875 C25.30499649 122.05746973 24.04718213 124.23976038 22.7890625 126.421875 C21.52596731 128.6145405 20.26294656 130.80724889 19 133 C5.11428536 157.10863387 5.11428536 157.10863387 -1.47412109 168.39477539 C-2.64415059 170.39946025 -3.81248746 172.40513411 -4.97900391 174.41186523 C-7.73405908 179.14699243 -10.51371298 183.86319413 -13.35546875 188.546875 C-13.87657227 189.41642822 -14.39767578 190.28598145 -14.93457031 191.18188477 C-15.90766042 192.80417582 -16.89201606 194.41978437 -17.88964844 196.02709961 C-18.31665039 196.74389893 -18.74365234 197.46069824 -19.18359375 198.19921875 C-19.74904907 199.12480591 -19.74904907 199.12480591 -20.32592773 200.0690918 C-21.51765546 203.48284571 -20.40916968 206.13312757 -18.9152832 209.2980957 C-18.23985474 210.47505005 -18.23985474 210.47505005 -17.55078125 211.67578125 C-16.78435303 213.02216675 -16.78435303 213.02216675 -16.00244141 214.39575195 C-15.44476074 215.35827881 -14.88708008 216.32080566 -14.3125 217.3125 C-13.73161621 218.32723389 -13.15073242 219.34196777 -12.55224609 220.38745117 C-7.2834288 229.57010581 -1.94106087 238.71055365 3.40625 247.84765625 C11.06520187 260.9435442 18.63351179 274.09273914 26.15234375 287.26953125 C26.67052422 288.17730064 26.67052422 288.17730064 27.19917297 289.10340881 C28.91347777 292.10739572 30.62538628 295.11270867 32.33325195 298.12036133 C35.24876976 303.24272638 38.18177922 308.34399633 41.265625 313.3671875 C41.74475342 314.15279053 42.22388184 314.93839355 42.7175293 315.74780273 C43.5811015 317.15375284 44.45662396 318.55247122 45.34692383 319.94165039 C48.06001985 324.36580329 48.06001985 324.36580329 47.77587891 327.36816406 C46.90141089 330.33442121 45.67840903 332.66430175 44.11328125 335.33203125 C43.51193359 336.36521484 42.91058594 337.39839844 42.29101562 338.46289062 C41.63810547 339.56826172 40.98519531 340.67363281 40.3125 341.8125 C39.63019245 342.97942801 38.94856206 344.1467522 38.26757812 345.31445312 C36.86665869 347.71404049 35.46177647 350.11123378 34.05322266 352.50634766 C31.59097525 356.6933626 29.14484082 360.88972338 26.69873047 365.08618164 C25.5670932 367.02726971 24.43460728 368.96786328 23.30126953 370.90795898 C18.74029804 378.71705204 14.20809438 386.54249145 9.6875 394.375 C9.03458984 395.50550781 8.38167969 396.63601563 7.70898438 397.80078125 C7.10763672 398.84363281 6.50628906 399.88648438 5.88671875 400.9609375 C5.35264404 401.88696777 4.81856934 402.81299805 4.26831055 403.76708984 C3.4776882 405.1590113 2.71589511 406.56820979 2 408 C1.34 408 0.68 408 0 408 C-0.35078613 407.36835938 -0.70157227 406.73671875 -1.06298828 406.0859375 C-8.70333295 392.34470212 -16.46655856 378.68897462 -24.41796875 365.125 C-28.2280249 358.62295335 -31.99042758 352.09382819 -35.75 345.5625 C-39.80359467 338.52383143 -43.86749822 331.49266232 -48 324.5 C-56.44870438 310.19723047 -64.77911163 295.81809103 -72.875 281.3125 C-77.61156656 272.82881733 -82.63740607 264.52648539 -87.6875 256.2265625 C-90.09126995 252.25783815 -92.42050366 248.2706106 -94.625 244.1875 C-97.66611486 238.55580581 -100.8262898 232.99514248 -104 227.4375 C-104.74757568 226.12591919 -104.74757568 226.12591919 -105.51025391 224.7878418 C-108.51505998 219.53509411 -111.59838083 214.34626434 -114.80078125 209.21118164 C-116.81565415 205.49605464 -116.81565415 205.49605464 -117 203 C-115.8828125 200.38818359 -115.8828125 200.38818359 -114.125 197.3984375 C-113.47716553 196.28194824 -112.82933105 195.16545898 -112.16186523 194.01513672 C-111.44140847 192.80165985 -110.7207822 191.5882836 -110 190.375 C-109.26319077 189.11415239 -108.52761148 187.85258528 -107.79321289 186.59033203 C-106.27841587 183.99027319 -104.7573062 181.39407466 -103.23095703 178.80078125 C-100.54785242 174.23769976 -97.9080914 169.64998669 -95.26953125 165.06103516 C-93.42208536 161.84819283 -91.56927817 158.63850052 -89.71484375 155.4296875 C-85.97348344 148.95489978 -82.23642517 142.47763657 -78.5 136 C-77.25001878 133.8333225 -76.00001879 131.66665583 -74.75 129.5 C-74.13125 128.4275 -73.5125 127.355 -72.875 126.25 C-61 105.66666667 -49.125 85.08333333 -37.25 64.5 C-36.63092773 63.42693604 -36.01185547 62.35387207 -35.37402344 61.24829102 C-34.12729744 59.08731012 -32.88055273 56.92634002 -31.63378906 54.76538086 C-27.81136035 48.14007087 -23.98941995 41.51447986 -20.16870117 34.88818359 C-18.90425351 32.69651721 -17.63881483 30.50542223 -16.37231445 28.31494141 C-13.45574547 23.26937396 -10.55170674 18.217824 -7.68359375 13.14453125 C-7.17473633 12.24984131 -6.66587891 11.35515137 -6.14160156 10.43334961 C-5.19600784 8.76966986 -4.25622384 7.10266992 -3.32324219 5.43188477 C-2.2715492 3.58813293 -1.14389583 1.78801043 0 0 Z " fill="white" transform="translate(249,46)"/>
<path d="M0 0 C0.66 0 1.32 0 2 0 C16.13445205 24.46190868 16.13445205 24.46190868 23 36.5 C29.3199949 47.57894358 35.69736293 58.62455987 42.07666016 69.66943359 C44.59636071 74.03269266 47.11419977 78.39702414 49.63183594 82.76147461 C50.87844912 84.92252059 52.12519416 87.08349051 53.37207031 89.24438477 C56.51156308 94.68532697 59.6496688 100.12706102 62.78515625 105.5703125 C68.8305518 116.06232131 74.89115248 126.54478712 81 137 C88.38347894 149.63785116 95.70208358 162.31258114 103 175 C103.60279785 176.04639648 104.2055957 177.09279297 104.82666016 178.17089844 C106.53264536 181.13341004 108.23560555 184.09763691 109.9375 187.0625 C110.70924561 188.40187622 110.70924561 188.40187622 111.49658203 189.76831055 C111.9604834 190.57824463 112.42438477 191.38817871 112.90234375 192.22265625 C113.30960693 192.93172119 113.71687012 193.64078613 114.13647461 194.37133789 C115 196 115 196 115 197 C83.65 197 52.3 197 20 197 C13.565 185.615 13.565 185.615 7 174 C4.74028627 170.09643235 2.47638163 166.19855195 0.1875 162.3125 C-5.27902134 152.98652773 -10.66187893 143.61504846 -16.01263428 134.22244263 C-20.77239612 125.86963999 -25.58211205 117.54768509 -30.4375 109.25 C-31.57310637 107.30089176 -32.70852968 105.35167686 -33.84375 103.40234375 C-35.84574848 99.96626808 -37.86717696 96.5430862 -39.90625 93.12890625 C-40.75051256 91.69040487 -41.59429993 90.25162443 -42.4375 88.8125 C-42.82156006 88.18311523 -43.20562012 87.55373047 -43.60131836 86.90527344 C-45.07079024 84.36808617 -46.00383127 82.48580543 -45.98046875 79.5234375 C-44.6346941 76.05981032 -42.81264073 72.96719638 -40.875 69.8125 C-39.95830195 68.28725898 -39.0430296 66.76116051 -38.12890625 65.234375 C-37.62762207 64.39970703 -37.12633789 63.56503906 -36.60986328 62.70507812 C-33.62429874 57.68838793 -30.72331499 52.62279921 -27.8125 47.5625 C-26.52995087 45.33723788 -25.24739874 43.11197749 -23.96484375 40.88671875 C-21.61118296 36.79982799 -19.25918218 32.71199064 -16.90879822 28.62321472 C-15.88849575 26.84870926 -14.86757224 25.07456263 -13.84643555 23.30053711 C-12.56666679 21.07682993 -11.28811196 18.85242351 -10.01098633 16.62719727 C-8.35166379 13.74485439 -6.68118986 10.86963521 -5 8 C-4.51563477 7.17016602 -4.03126953 6.34033203 -3.53222656 5.48535156 C-2.41308822 3.62066599 -1.21530003 1.80348794 0 0 Z " fill="white" transform="translate(320,169)"/>
<path d="M0 0 C3.15020301 1.3268787 4.57646067 2.4022856 6.15625 5.4296875 C6.53297852 6.13279053 6.90970703 6.83589355 7.29785156 7.56030273 C7.69456055 8.32415283 8.09126953 9.08800293 8.5 9.875 C9.37701009 11.51083327 10.25735225 13.14488351 11.140625 14.77734375 C11.60275391 15.63183105 12.06488281 16.48631836 12.54101562 17.36669922 C14.99388411 21.79384772 17.62255223 26.11244268 20.25 30.4375 C23.82522983 36.34323343 27.32164278 42.25790391 30.5703125 48.3515625 C33.94911712 54.61065959 37.50363926 60.79129517 41.13183594 66.90820312 C44 71.78685686 44 71.78685686 44 74 C15.95 74 -12.1 74 -41 74 C-40.20059254 70.80237015 -39.52655178 68.86588104 -37.98828125 66.078125 C-37.56772461 65.31290527 -37.14716797 64.54768555 -36.71386719 63.75927734 C-36.25141602 62.93121582 -35.78896484 62.1031543 -35.3125 61.25 C-34.82555664 60.37166504 -34.33861328 59.49333008 -33.83691406 58.58837891 C-28.92429956 49.77566169 -23.83171709 41.06926694 -18.7265625 32.3671875 C-14.6590529 25.43080639 -10.63942994 18.46717855 -6.625 11.5 C-6.29004517 10.91885437 -5.95509033 10.33770874 -5.60998535 9.73895264 C-3.73919279 6.49309403 -1.86919114 3.24678105 0 0 Z " fill="white" transform="translate(107,292)"/>
</svg>